<svg width="194" height="29" viewBox="0 0 194 29" fill="none" xmlns="http://www.w3.org/2000/svg">
<path d="M9.27419 13.3021C9.08156 13.3277 8.90642 13.4272 8.78566 13.5794C8.6649 13.7317 8.60795 13.9249 8.62681 14.1183C8.64567 14.3117 8.73887 14.4902 8.88677 14.6163C9.03467 14.7424 9.22572 14.8061 9.41968 14.7941L15.0498 14.245C15.2476 14.2256 15.4296 14.1285 15.5559 13.975C15.6821 13.8214 15.7422 13.6241 15.7231 13.4263L15.174 7.79613C15.1484 7.60351 15.0489 7.42836 14.8967 7.3076C14.7444 7.18684 14.5512 7.12989 14.3578 7.14875C14.1644 7.16761 13.9859 7.26081 13.8598 7.40871C13.7338 7.55661 13.67 7.74767 13.6821 7.94163L14.0554 11.7701L9.85355 8.31497C8.3497 7.07835 7.44403 6.01643 6.95127 4.97038C6.46747 3.94334 6.35043 2.86704 6.54979 1.53822C6.56431 1.44075 6.55949 1.34137 6.53561 1.24577C6.51172 1.15017 6.46924 1.0602 6.41059 0.981016C6.35194 0.901829 6.27826 0.834969 6.19377 0.784256C6.10928 0.733542 6.01563 0.699967 5.91816 0.685447C5.82069 0.670927 5.72132 0.675747 5.62571 0.699632C5.53011 0.723517 5.44014 0.765997 5.36096 0.824651C5.28177 0.883304 5.21491 0.95698 5.1642 1.04147C5.11348 1.12596 5.07991 1.21962 5.06539 1.31708C4.83395 2.87069 4.95789 4.25822 5.59337 5.60935C6.22052 6.9407 7.31511 8.16963 8.90085 9.47357L13.1027 12.9287L9.27419 13.3021Z" fill="#FFD18B"/>
<path d="M26.592 24.16C24.272 24.16 22.592 22.32 22.592 19.776C22.592 17.248 24.272 15.424 26.592 15.424C28.928 15.424 30.608 17.248 30.608 19.776C30.608 22.32 28.928 24.16 26.592 24.16ZM26.592 23.184C28.24 23.184 29.472 21.872 29.472 19.776C29.472 17.712 28.24 16.4 26.592 16.4C24.96 16.4 23.728 17.712 23.728 19.776C23.728 21.872 24.96 23.184 26.592 23.184ZM33.5391 19.088V24H32.4191V15.568H33.4591V17.152C34.0031 16.112 35.0271 15.408 36.2431 15.408C38.0031 15.408 39.1391 16.528 39.1391 18.528V24H38.0191V18.912C38.0191 17.296 37.2831 16.384 35.9071 16.384C34.5951 16.384 33.5391 17.52 33.5391 19.088ZM44.8093 24.16C42.4413 24.16 40.8733 22.384 40.8733 19.712C40.8733 17.248 42.5053 15.408 44.7453 15.408C47.1453 15.408 48.7133 17.344 48.5213 20.048H41.9933C42.0893 22.048 43.1453 23.28 44.7933 23.28C46.2013 23.28 47.1773 22.496 47.4493 21.152H48.5533C48.1693 23.024 46.7453 24.16 44.8093 24.16ZM44.7293 16.272C43.2093 16.272 42.1373 17.44 41.9933 19.28H47.3533C47.2573 17.392 46.2813 16.272 44.7293 16.272ZM60.212 15.568L56.964 24H55.796L52.58 15.568H53.78L56.42 22.688L59.06 15.568H60.212ZM62.9689 13.616C62.9689 14.112 62.6009 14.464 62.0569 14.464C61.5289 14.464 61.1609 14.112 61.1609 13.616C61.1609 13.136 61.5289 12.784 62.0569 12.784C62.6009 12.784 62.9689 13.136 62.9689 13.616ZM62.6329 24H61.5129V15.568H62.6329V24ZM64.4358 19.776C64.4358 17.184 65.8758 15.408 68.1478 15.408C69.4118 15.408 70.4838 16.128 71.0438 17.328V12.512H72.1638V24H71.1238V22.224C70.5318 23.456 69.4438 24.16 68.1478 24.16C65.8758 24.16 64.4358 22.368 64.4358 19.776ZM65.5718 19.776C65.5718 21.92 66.6598 23.184 68.3078 23.184C69.9398 23.184 71.0598 21.856 71.0598 19.744C71.0598 17.616 69.9078 16.384 68.3078 16.384C66.6598 16.384 65.5718 17.632 65.5718 19.776ZM77.903 24.16C75.535 24.16 73.967 22.384 73.967 19.712C73.967 17.248 75.599 15.408 77.839 15.408C80.239 15.408 81.807 17.344 81.615 20.048H75.087C75.183 22.048 76.239 23.28 77.887 23.28C79.295 23.28 80.271 22.496 80.543 21.152H81.647C81.263 23.024 79.839 24.16 77.903 24.16ZM77.823 16.272C76.303 16.272 75.231 17.44 75.087 19.28H80.447C80.351 17.392 79.375 16.272 77.823 16.272ZM86.6858 24.16C84.3658 24.16 82.6858 22.32 82.6858 19.776C82.6858 17.248 84.3658 15.424 86.6858 15.424C89.0218 15.424 90.7018 17.248 90.7018 19.776C90.7018 22.32 89.0218 24.16 86.6858 24.16ZM86.6858 23.184C88.3338 23.184 89.5658 21.872 89.5658 19.776C89.5658 17.712 88.3338 16.4 86.6858 16.4C85.0538 16.4 83.8218 17.712 83.8218 19.776C83.8218 21.872 85.0538 23.184 86.6858 23.184ZM97.3126 13.616C97.3126 14.112 96.9446 14.464 96.4006 14.464C95.8726 14.464 95.5046 14.112 95.5046 13.616C95.5046 13.136 95.8726 12.784 96.4006 12.784C96.9446 12.784 97.3126 13.136 97.3126 13.616ZM96.9766 24H95.8566V15.568H96.9766V24ZM105.708 21.648C105.708 23.2 104.46 24.16 102.38 24.16C100.284 24.16 99.0035 23.104 98.8435 21.36H99.9155C99.9955 22.56 100.94 23.312 102.38 23.312C103.756 23.312 104.588 22.784 104.588 21.824C104.588 20.992 104.108 20.608 102.828 20.352L101.612 20.112C100.012 19.808 99.1635 19.024 99.1635 17.808C99.1635 16.4 100.412 15.408 102.252 15.408C104.188 15.408 105.468 16.448 105.596 18.128H104.54C104.428 16.96 103.58 16.272 102.252 16.272C101.068 16.272 100.252 16.832 100.252 17.712C100.252 18.544 100.764 18.944 102.012 19.184L103.276 19.424C104.956 19.744 105.708 20.448 105.708 21.648ZM116.181 24V22.464C115.685 23.52 114.661 24.16 113.349 24.16C111.605 24.16 110.469 23.184 110.469 21.664C110.469 20.016 111.781 19.152 114.341 19.152C114.853 19.152 115.237 19.184 116.069 19.248V18.544C116.069 17.136 115.317 16.304 114.037 16.304C112.661 16.304 111.797 17.152 111.781 18.528H110.757C110.805 16.656 112.101 15.408 114.021 15.408C115.989 15.408 117.141 16.56 117.141 18.512V24H116.181ZM111.541 21.632C111.541 22.656 112.325 23.344 113.509 23.344C115.077 23.344 116.069 22.32 116.069 20.736V19.984C115.349 19.92 114.853 19.904 114.389 19.904C112.469 19.904 111.541 20.464 111.541 21.632ZM120.617 24H119.497V12.512H120.617V24ZM124.164 24H123.044V12.512H124.164V24ZM136.431 15.568L132.111 27.088H130.911L132.143 23.888L128.799 15.568H129.999L132.719 22.544L135.295 15.568H136.431ZM140.858 24.16C138.538 24.16 136.858 22.32 136.858 19.776C136.858 17.248 138.538 15.424 140.858 15.424C143.194 15.424 144.874 17.248 144.874 19.776C144.874 22.32 143.194 24.16 140.858 24.16ZM140.858 23.184C142.506 23.184 143.738 21.872 143.738 19.776C143.738 17.712 142.506 16.4 140.858 16.4C139.226 16.4 137.994 17.712 137.994 19.776C137.994 21.872 139.226 23.184 140.858 23.184ZM152.077 20.592V15.568H153.181V24H152.141V22.48C151.709 23.456 150.685 24.16 149.453 24.16C147.741 24.16 146.605 23.184 146.605 21.056V15.568H147.725V20.816C147.725 22.528 148.573 23.184 149.757 23.184C151.101 23.184 152.077 22.096 152.077 20.592ZM160.07 19.088V24H158.95V15.568H159.99V17.152C160.534 16.112 161.558 15.408 162.774 15.408C164.534 15.408 165.67 16.528 165.67 18.528V24H164.55V18.912C164.55 17.296 163.814 16.384 162.438 16.384C161.126 16.384 160.07 17.52 160.07 19.088ZM171.341 24.16C168.973 24.16 167.405 22.384 167.405 19.712C167.405 17.248 169.037 15.408 171.277 15.408C173.677 15.408 175.245 17.344 175.053 20.048H168.525C168.621 22.048 169.677 23.28 171.325 23.28C172.733 23.28 173.709 22.496 173.981 21.152H175.085C174.701 23.024 173.277 24.16 171.341 24.16ZM171.261 16.272C169.741 16.272 168.669 17.44 168.525 19.28H173.885C173.789 17.392 172.813 16.272 171.261 16.272ZM180.059 24.16C177.691 24.16 176.123 22.384 176.123 19.712C176.123 17.248 177.755 15.408 179.995 15.408C182.395 15.408 183.963 17.344 183.771 20.048H177.243C177.339 22.048 178.395 23.28 180.043 23.28C181.451 23.28 182.427 22.496 182.699 21.152H183.803C183.419 23.024 181.995 24.16 180.059 24.16ZM179.979 16.272C178.459 16.272 177.387 17.44 177.243 19.28H182.603C182.507 17.392 181.531 16.272 179.979 16.272ZM184.842 19.776C184.842 17.184 186.282 15.408 188.554 15.408C189.818 15.408 190.89 16.128 191.45 17.328V12.512H192.57V24H191.53V22.224C190.938 23.456 189.85 24.16 188.554 24.16C186.282 24.16 184.842 22.368 184.842 19.776ZM185.978 19.776C185.978 21.92 187.066 23.184 188.714 23.184C190.346 23.184 191.466 21.856 191.466 19.744C191.466 17.616 190.314 16.384 188.714 16.384C187.066 16.384 185.978 17.632 185.978 19.776Z" fill="#FFD18B"/>
</svg>
