<svg width="374" height="98" viewBox="0 0 374 98" fill="none" xmlns="http://www.w3.org/2000/svg">
<path d="M36.4 75.5C15.8 75.5 0.3 59.6 0.3 38.2C0.3 17 15.1 0.699996 35.9 0.699996C54.8 0.699996 66.7 12.6 70.5 26.7H65.2C61.9 14.6 51.9 4.99999 35.7 4.99999C17.6 4.99999 5.3 19.2 5.3 38.2C5.3 57.2 18.1 71.2 36.4 71.2C53.7 71.2 64.7 60.3 66.5 43.1H35.8V39H71.5C70.9 61.5 57 75.5 36.4 75.5ZM104.185 75C89.8852 75 79.7852 63.8 79.7852 47.7C79.7852 31.9 89.8852 20.7 104.185 20.7C118.485 20.7 128.585 31.9 128.585 47.7C128.585 63.8 118.485 75 104.185 75ZM104.185 71.1C115.585 71.1 123.885 61.9 123.885 47.7C123.885 33.8 115.585 24.6 104.185 24.6C92.7852 24.6 84.4852 33.8 84.4852 47.7C84.4852 61.9 92.7852 71.1 104.185 71.1ZM161.021 75C146.721 75 136.621 63.8 136.621 47.7C136.621 31.9 146.721 20.7 161.021 20.7C175.321 20.7 185.421 31.9 185.421 47.7C185.421 63.8 175.321 75 161.021 75ZM161.021 71.1C172.421 71.1 180.721 61.9 180.721 47.7C180.721 33.8 172.421 24.6 161.021 24.6C149.621 24.6 141.321 33.8 141.321 47.7C141.321 61.9 149.621 71.1 161.021 71.1ZM193.457 47.7C193.457 31.4 202.457 20.6 216.457 20.6C224.857 20.6 232.057 25.6 235.457 33.9V2.19999H240.057V74H235.657V61.8C232.157 70.1 225.057 75 216.457 75C202.357 75 193.457 64.1 193.457 47.7ZM198.157 47.7C198.157 62.3 205.357 71.1 216.857 71.1C228.157 71.1 235.657 61.8 235.657 47.5C235.657 33.1 227.857 24.5 216.857 24.5C205.357 24.5 198.157 33.2 198.157 47.7ZM280.147 97.6C277.347 97.6 274.647 97.4667 272.047 97.2C269.447 96.9333 266.914 96.5 264.447 95.9C261.98 95.3667 260.014 94.5333 258.547 93.4C257.014 92.3333 256.247 91.0667 256.247 89.6C256.247 86.2 261.68 82.1667 272.547 77.5L277.047 75.6L273.647 74C271.447 72.9333 269.747 71.9 268.547 70.9C267.347 69.8333 266.747 68.5333 266.747 67C266.747 65.3333 267.514 63.9 269.047 62.7C270.514 61.4333 273.047 60.1333 276.647 58.8L279.847 57.6C277.647 55.6 276.547 52.4 276.547 48C276.547 42.3333 278.68 36.9667 282.947 31.9C287.214 26.7667 292.247 24.2 298.047 24.2C300.514 24.2 302.88 25.2667 305.147 27.4L305.647 26.9C310.514 22.0333 314.447 19.6 317.447 19.6C318.314 19.6 319.047 19.8333 319.647 20.3C320.314 20.7667 320.647 21.4 320.647 22.2C320.647 23 320.347 23.6667 319.747 24.2C319.147 24.6667 318.38 24.9 317.447 24.9C316.78 24.9 315.914 24.7333 314.847 24.4C313.78 24 312.847 23.8 312.047 23.8C310.58 23.8 308.647 25 306.247 27.4L305.647 28C307.314 30.0667 308.147 33 308.147 36.8C308.147 42.5333 305.98 47.9333 301.647 53C297.314 58 292.314 60.5 286.647 60.5C284.714 60.5 282.647 59.7 280.447 58.1L276.947 59.4C273.014 60.8667 271.047 62.4333 271.047 64.1C271.047 65.0333 271.447 65.8333 272.247 66.5C273.047 67.1 274.48 67.8667 276.547 68.8L291.347 75.6C296.347 77.9333 299.814 79.9 301.747 81.5C303.68 83.1667 304.647 84.9667 304.647 86.9C304.647 90.4333 302.414 93.1 297.947 94.9C293.547 96.7 287.614 97.6 280.147 97.6ZM280.147 96.9C286.68 96.9 291.58 96.2 294.847 94.8C298.114 93.4667 299.747 91.7 299.747 89.5C299.747 88.0333 298.947 86.7 297.347 85.5C295.747 84.3667 292.847 82.8333 288.647 80.9L278.047 76L272.947 78.2C270.08 79.4667 267.68 81.0333 265.747 82.9C263.747 84.7667 262.747 86.8 262.747 89C262.747 91.6667 264.38 93.6333 267.647 94.9C270.914 96.2333 275.08 96.9 280.147 96.9ZM286.447 59.8C288.847 59.8 291.414 58.1333 294.147 54.8C296.88 51.4667 299.114 47.5 300.847 42.9C302.58 38.2333 303.447 34.1 303.447 30.5C303.447 26.7667 301.714 24.9 298.247 24.9C295.847 24.9 293.28 26.5667 290.547 29.9C287.814 33.2333 285.58 37.2 283.847 41.8C282.114 46.3333 281.247 50.3667 281.247 53.9C281.247 57.8333 282.98 59.8 286.447 59.8ZM343.511 13.1C342.644 13.9667 341.544 14.4 340.211 14.4C338.878 14.4 337.778 13.9667 336.911 13.1C336.044 12.2333 335.611 11.1333 335.611 9.8C335.611 8.46666 336.044 7.36666 336.911 6.5C337.778 5.56667 338.878 5.1 340.211 5.1C341.544 5.1 342.644 5.56667 343.511 6.5C344.444 7.36666 344.911 8.46666 344.911 9.8C344.911 11.1333 344.444 12.2333 343.511 13.1ZM333.811 38.6L322.711 61.5C320.444 66.0333 319.311 69.1333 319.311 70.8C319.311 72 319.878 72.6 321.011 72.6C322.944 72.6 326.711 68.9 332.311 61.5L332.911 61.9C326.578 70.5 321.644 74.8 318.111 74.8C316.578 74.8 315.411 74.3667 314.611 73.5C313.811 72.5667 313.411 71.4667 313.411 70.2C313.411 68.0667 314.478 64.8 316.611 60.4L327.711 37.5C329.978 32.9667 331.111 29.8667 331.111 28.2C331.111 27 330.544 26.4 329.411 26.4C327.478 26.4 323.711 30.1 318.111 37.5L317.511 37.1C323.844 28.5 328.778 24.2 332.311 24.2C333.844 24.2 335.011 24.6667 335.811 25.6C336.611 26.4667 337.011 27.5333 337.011 28.8C337.011 30.9333 335.944 34.2 333.811 38.6ZM343.58 74.8C342.047 74.8 340.88 74.3667 340.08 73.5C339.28 72.5667 338.88 71.4667 338.88 70.2C338.88 68.4 339.914 65 341.98 60L355.68 25.8H348.78V25H355.98L358.48 18.6C362.68 17.6 365.714 15.0667 367.58 11L368.08 11.2L362.48 25H373.18V25.8H362.18L348.08 61.3C345.88 66.6333 344.78 69.8 344.78 70.8C344.78 72 345.347 72.6 346.48 72.6C348.414 72.6 352.18 68.9 357.78 61.5L358.38 61.9C352.047 70.5 347.114 74.8 343.58 74.8Z" fill="#DCDCDC"/>
</svg>
